<?xml version="1.0" standalone="no"?>
<!DOCTYPE svg PUBLIC "-//W3C//DTD SVG 20010904//EN"
 "http://www.w3.org/TR/2001/REC-SVG-20010904/DTD/svg10.dtd">
<svg version="1.0" xmlns="http://www.w3.org/2000/svg"
 width="1000.000000pt" height="1000.000000pt" viewBox="0 0 1000.000000 1000.000000"
 preserveAspectRatio="xMidYMid meet">
<metadata>
Created by potrace 1.11, written by Peter Selinger 2001-2013
</metadata>
<g transform="translate(0.000000,1000.000000) scale(0.100000,-0.100000)"
fill="#000000" stroke="none">
<path d="M5661 7335 c-189 -52 -347 -98 -351 -102 -4 -4 -97 -201 -205 -438
-109 -236 -201 -433 -205 -438 -3 -4 -271 -79 -595 -166 -323 -88 -591 -165
-595 -171 -13 -21 -141 -462 -136 -467 3 -3 26 0 51 7 25 7 47 11 50 8 2 -2
-4 -31 -14 -63 -14 -43 -16 -61 -7 -63 6 -1 218 52 470 118 253 66 460 119
461 118 1 -2 -281 -613 -626 -1358 -346 -745 -628 -1360 -629 -1366 0 -7 43
-4 130 11 72 12 130 21 130 20 0 -2 -12 -28 -26 -59 -14 -32 -24 -59 -21 -62
2 -2 168 22 368 53 l364 58 22 45 c12 25 298 690 636 1479 l613 1434 695 182
694 182 47 229 c26 126 47 239 48 251 0 22 -1 22 -47 8 -26 -8 -48 -13 -50
-12 -1 2 4 31 13 66 8 35 13 65 12 67 -2 1 -252 -65 -556 -148 -305 -82 -556
-148 -558 -145 -2 2 59 153 137 336 78 182 139 334 136 338 -4 3 -41 -4 -83
-15 -43 -12 -80 -19 -82 -17 -3 3 10 37 28 77 43 97 43 98 34 97 -5 0 -164
-43 -353 -94z"/>
</g>
</svg>
