<svg aria-hidden="true" focusable="false" width="250" viewBox="50 100 210 100" xmlns="http://www.w3.org/2000/svg">
	<g fill-rule="nonzero" fill="none">

		<path fill="#1D1D45" d="M94.77,175.74h0.34v1.65c0.43-1.03,1.46-1.76,2.66-1.76c1.63,0,2.95,1.33,2.95,2.97c0,1.66-1.32,3-2.95,3
			c-1.2,0-2.23-0.73-2.66-1.78v4.3h-0.34V175.74z M100.38,178.6c0-1.45-1.18-2.64-2.64-2.64c-1.45,0-2.63,1.19-2.63,2.64
			c0,1.46,1.18,2.65,2.63,2.65C99.2,181.25,100.38,180.07,100.38,178.6z" />
		<path fill="#1D1D45" d="M101.84,178.6c0-1.64,1.33-2.97,2.97-2.97c1.64,0,2.98,1.33,2.98,2.97c0,1.66-1.34,3-2.98,3
			C103.17,181.6,101.84,180.27,101.84,178.6z M107.46,178.6c0-1.45-1.19-2.64-2.64-2.64c-1.45,0-2.64,1.19-2.64,2.64
			c0,1.46,1.19,2.65,2.64,2.65C106.27,181.25,107.46,180.07,107.46,178.6z" />
		<path fill="#1D1D45" d="M109.37,175.74h0.33v1.15c0.37-0.75,1.13-1.26,2.01-1.26c0.11,0,0.22,0.01,0.33,0.02V176
			c-0.12-0.02-0.23-0.03-0.35-0.03c-1.09,0-1.97,0.89-1.99,2v3.52h-0.33V175.74z" />
		<path fill="#1D1D45" d="M118.03,181.47l-2.65-5.72h0.37l2.47,5.31l2.46-5.31h0.37l-3.88,8.39h-0.37L118.03,181.47z" />
		<path fill="#1D1D45" d="M125.36,175.74h0.34v1.65c0.43-1.03,1.46-1.76,2.66-1.76c1.63,0,2.95,1.33,2.95,2.97c0,1.66-1.32,3-2.95,3
			c-1.2,0-2.23-0.73-2.66-1.78v4.3h-0.34V175.74z M130.98,178.6c0-1.45-1.18-2.64-2.64-2.64c-1.45,0-2.63,1.19-2.63,2.64
			c0,1.46,1.18,2.65,2.63,2.65C129.8,181.25,130.98,180.07,130.98,178.6z" />
		<path fill="#1D1D45" d="M132.44,178.6c0-1.64,1.32-2.97,2.95-2.97c1.2,0,2.23,0.73,2.66,1.76v-1.65h0.33v5.74h-0.33v-1.65
			c-0.43,1.04-1.46,1.78-2.66,1.78C133.76,181.6,132.44,180.27,132.44,178.6z M138.05,178.6c0-1.45-1.18-2.64-2.64-2.64
			c-1.45,0-2.64,1.19-2.64,2.64c0,1.46,1.19,2.65,2.64,2.65C136.88,181.25,138.05,180.07,138.05,178.6z" />
		<path fill="#1D1D45" d="M140.48,175.74h0.33v1.15c0.37-0.75,1.13-1.26,2.01-1.26c0.11,0,0.22,0.01,0.33,0.02V176
			c-0.12-0.02-0.23-0.03-0.35-0.03c-1.09,0-1.97,0.89-1.99,2v3.52h-0.33V175.74z" />
		<path fill="#1D1D45" d="M143.2,178.6c0-1.64,1.32-2.97,2.95-2.97c1.2,0,2.23,0.73,2.66,1.76v-1.65h0.33v5.74h-0.33v-1.65
			c-0.43,1.04-1.46,1.78-2.66,1.78C144.52,181.6,143.2,180.27,143.2,178.6z M148.81,178.6c0-1.45-1.18-2.64-2.64-2.64
			c-1.45,0-2.64,1.19-2.64,2.64c0,1.46,1.19,2.65,2.64,2.65C147.64,181.25,148.81,180.07,148.81,178.6z" />
		<path fill="#1D1D45" d="M153.75,178.59c0-1.65,1.31-3,2.98-3c1.69,0,3.01,1.34,3.01,3c0,0.05-0.01,0.11-0.01,0.16h-5.61
			c0.08,1.41,1.3,2.53,2.78,2.53c0.93,0,1.75-0.43,2.26-1.08l0.3,0.17c-0.58,0.74-1.5,1.23-2.56,1.23
			C155.16,181.6,153.75,180.26,153.75,178.59z M159.36,178.43c-0.06-1.4-1.2-2.51-2.63-2.51c-1.42,0-2.54,1.11-2.62,2.51H159.36z" />
		<path fill="#1D1D45" d="M161.27,173.03h0.34v8.44h-0.34V173.03z" />
		<path fill="#1D1D45" d="M169.31,173.48h0.08l3.44,8h-0.4l-0.9-2.14h-4.36l-0.91,2.14h-0.39L169.31,173.48z M171.39,179.02l-2.05-4.83
			l-2.04,4.83H171.39z" />
		<path fill="#1D1D45" d="M174.09,175.74h0.33v1.14c0.38-0.74,1.13-1.25,2.02-1.25c0.85,0,1.58,0.58,1.79,1.36
			c0.34-0.8,1.14-1.36,2.09-1.36c1.02,0,1.86,0.83,1.86,1.85v3.99h-0.33v-3.94c-0.01-0.87-0.72-1.58-1.59-1.58
			c-1.08,0-1.95,0.88-1.95,1.96v3.55h-0.33v-3.94c-0.01-0.87-0.72-1.58-1.59-1.58c-1.08,0-1.95,0.88-1.96,1.96v3.55h-0.33V175.74z" />
		<path fill="#1D1D45" d="M183.65,178.6c0-1.64,1.33-2.97,2.97-2.97c1.64,0,2.98,1.33,2.98,2.97c0,1.66-1.34,3-2.98,3
			C184.98,181.6,183.65,180.27,183.65,178.6z M189.26,178.6c0-1.45-1.19-2.64-2.64-2.64c-1.45,0-2.64,1.19-2.64,2.64
			c0,1.46,1.19,2.65,2.64,2.65C188.08,181.25,189.26,180.07,189.26,178.6z" />
		<path fill="#1D1D45" d="M191.17,175.74h0.33v1.15c0.37-0.75,1.13-1.26,2.01-1.26c0.11,0,0.22,0.01,0.33,0.02V176
			c-0.12-0.02-0.23-0.03-0.35-0.03c-1.09,0-1.97,0.89-1.99,2v3.52h-0.33V175.74z" />

		<rect x="46.55" y="168.25" fill="#1D1D45" width="205.2" height="1.86" />
		<path fill="#1D1D45" d="M235.99,157.37l-2.95,2.95c0,0,3.26,4.84,10.29,4.86c7.03,0.03,10.49-6.19,10.09-10.67
		c-0.41-4.48-4.04-7.44-10.17-10.6c-6.13-3.16-5.21-7.54-3.17-9.88c2.04-2.34,7.13-1.43,9.68,1.94l3.06-2.56
		c0,0-3.23-4.52-9.56-4.24s-9.39,5.78-8.78,9.85s4.01,6.52,8.78,8.97c4.77,2.45,5.79,4.59,5.59,7.85c-0.2,3.26-1.94,5.4-6.11,5.5
		C238.54,161.44,235.99,157.37,235.99,157.37z" />
		<polygon fill="#1D1D45" points="55.83,163.66 51.83,163.66 58.11,117.58 77.34,156.04 96.76,117.58 103.43,163.66 98.67,163.66 
		94.48,130.72 77.63,164.61 60.4,130.72 	" />
		<path fill="#1D1D45" d="M153.57,129.57v35.05h5.12v-20.07c0,0-0.12-5.88,2.87-9.35c1.41-1.63,3.74-2.09,5.73-1.27l0.41,0.17l2.05-3.69
		c0,0-0.85-0.97-2.87-1.2c-2.17-0.25-4.3,0.6-5.85,2.14c-1.08,1.08-2.26,2.59-2.76,4.38l0.61-6.17H153.57z" />
		<path fill="#1D1D45" d="M190.34,129.99h-7.03c0-7.31,0.03-13.32,0.03-13.32h-4.5v13.32h-5.72v3.42h5.72v24.88c0,0-0.41,7.3,4.96,6.89
		h5.12v-4.29l-3.91-0.04c-0.83-0.01-1.49-0.71-1.45-1.54l-0.17-4.71c0.05-0.92,0.07-2.88,0.05-3.81c-0.09-4.41-0.12-11.1-0.13-17.39
		h7.03V129.99z" />
		<path fill="#1D1D45" d="M221.83,129.99v15.83c0,3.55-0.91,7.06-2.79,10.07c-1.91,3.06-4.82,5.6-9.13,5.1
		c-9.99-1.16-9.07-12.8-9.07-12.8v-18.21h-4.38v16.81c0,0.72-0.01,1.43-0.03,2.15c-0.09,2.91,0.21,16.24,13.38,16.23
		c5.74-0.01,9.55-3.75,12.02-8.07v7.5h4.28v-34.62H221.83z" />

		<polygon fill="#1D1D45" points="137.39,115.87 131.25,115.87 123.36,124.06 128.27,124.06 		" />
		<path fill="#1D1D45" d="M141.91,129.57l0.35,8.77c-3.62-8.57-13.52-8.76-13.52-8.76s-17.71-1.14-18.28,18.09
			c0,0,0.76,17.33,18.28,17.52c0,0,8.21,0.29,13.16-7.33v6.76h4.16v-35.05H141.91z M128.57,161.04c-7.54,0-13.65-6.11-13.65-13.65
			c0-7.54,6.11-13.65,13.65-13.65c7.54,0,13.23,6.11,13.23,13.65C141.8,154.93,136.11,161.04,128.57,161.04z" />

	</g>
</svg>