<?xml version="1.0" encoding="utf-8"?>
<!-- Generator: Adobe Illustrator 24.1.1, SVG Export Plug-In . SVG Version: 6.00 Build 0)  -->
<svg version="1.1" id="Capa_1" xmlns="http://www.w3.org/2000/svg" xmlns:xlink="http://www.w3.org/1999/xlink" x="0px" y="0px"
	 viewBox="0 0 300 300" style="enable-background:new 0 0 300 300;" xml:space="preserve">
<style type="text/css">
	.st0{fill:#1D1D45;}
	.st1{fill:#2D2A2B;}
	.st2{fill:#B21427;}
	.st3{fill:#353435;}
</style>
<g>
	<polygon class="st1" points="62.02,195.56 43.33,198.55 95.75,90.98 108.21,87.61 	"/>
	<polygon class="st1" points="128.41,112.54 46.01,134.16 49.61,122.06 130.9,100.04 	"/>
	<polygon class="st2" points="56.23,193.46 38.05,196.44 87.76,89.04 105.62,84.2 	"/>
	<polygon class="st2" points="126.37,109.12 44.12,131.4 47.74,119.29 129.03,97.27 	"/>
	<g>
		<path class="st3" d="M124.27,182.47h0.29v1.4c0.37-0.88,1.24-1.5,2.26-1.5c1.38,0,2.5,1.13,2.5,2.52c0,1.41-1.12,2.54-2.5,2.54
			c-1.02,0-1.89-0.62-2.26-1.51v3.65h-0.29V182.47z M129.03,184.9c0-1.23-1-2.24-2.24-2.24c-1.23,0-2.23,1.01-2.23,2.24
			c0,1.24,1,2.25,2.23,2.25C128.04,187.15,129.03,186.14,129.03,184.9z"/>
		<path class="st3" d="M130.28,184.9c0-1.39,1.13-2.52,2.52-2.52c1.39,0,2.53,1.13,2.53,2.52c0,1.41-1.14,2.54-2.53,2.54
			C131.4,187.44,130.28,186.31,130.28,184.9z M135.04,184.9c0-1.23-1.01-2.24-2.24-2.24s-2.24,1.01-2.24,2.24
			c0,1.24,1.01,2.25,2.24,2.25S135.04,186.14,135.04,184.9z"/>
		<path class="st3" d="M136.65,182.47h0.28v0.98c0.31-0.64,0.96-1.07,1.7-1.07c0.09,0,0.19,0.01,0.28,0.02v0.29
			c-0.1-0.02-0.2-0.03-0.3-0.03c-0.92,0-1.67,0.75-1.68,1.69v2.98h-0.28V182.47z"/>
		<path class="st3" d="M144,187.32l-2.25-4.85h0.31l2.1,4.51l2.09-4.51h0.31l-3.29,7.11h-0.31L144,187.32z"/>
		<path class="st3" d="M150.22,182.47h0.29v1.4c0.37-0.88,1.24-1.5,2.26-1.5c1.38,0,2.5,1.13,2.5,2.52c0,1.41-1.12,2.54-2.5,2.54
			c-1.02,0-1.89-0.62-2.26-1.51v3.65h-0.29V182.47z M154.98,184.9c0-1.23-1-2.24-2.24-2.24c-1.23,0-2.23,1.01-2.23,2.24
			c0,1.24,1,2.25,2.23,2.25C153.98,187.15,154.98,186.14,154.98,184.9z"/>
		<path class="st3" d="M156.22,184.9c0-1.39,1.12-2.52,2.5-2.52c1.02,0,1.89,0.62,2.26,1.5v-1.4h0.28v4.86h-0.28v-1.4
			c-0.37,0.88-1.24,1.51-2.26,1.51C157.34,187.44,156.22,186.31,156.22,184.9z M160.98,184.9c0-1.23-1-2.24-2.24-2.24
			c-1.23,0-2.24,1.01-2.24,2.24c0,1.24,1.01,2.25,2.24,2.25C159.99,187.15,160.98,186.14,160.98,184.9z"/>
		<path class="st3" d="M163.05,182.47h0.28v0.98c0.31-0.64,0.96-1.07,1.7-1.07c0.09,0,0.19,0.01,0.28,0.02v0.29
			c-0.1-0.02-0.2-0.03-0.3-0.03c-0.92,0-1.67,0.75-1.68,1.69v2.98h-0.28V182.47z"/>
		<path class="st3" d="M165.35,184.9c0-1.39,1.12-2.52,2.5-2.52c1.02,0,1.89,0.62,2.26,1.5v-1.4h0.28v4.86h-0.28v-1.4
			c-0.37,0.88-1.24,1.51-2.26,1.51C166.47,187.44,165.35,186.31,165.35,184.9z M170.11,184.9c0-1.23-1-2.24-2.24-2.24
			c-1.23,0-2.24,1.01-2.24,2.24c0,1.24,1.01,2.25,2.24,2.25C169.11,187.15,170.11,186.14,170.11,184.9z"/>
		<path class="st3" d="M174.3,184.89c0-1.4,1.11-2.54,2.53-2.54c1.43,0,2.55,1.14,2.55,2.54c0,0.05-0.01,0.09-0.01,0.13h-4.76
			c0.07,1.19,1.1,2.15,2.36,2.15c0.79,0,1.49-0.37,1.92-0.91l0.25,0.14c-0.49,0.63-1.27,1.04-2.17,1.04
			C175.49,187.44,174.3,186.3,174.3,184.89z M179.06,184.75c-0.05-1.19-1.02-2.13-2.23-2.13c-1.2,0-2.15,0.94-2.22,2.13H179.06z"/>
		<path class="st3" d="M180.68,180.17h0.29v7.16h-0.29V180.17z"/>
		<path class="st3" d="M187.49,180.55h0.07l2.92,6.78h-0.34l-0.76-1.82h-3.7l-0.77,1.82h-0.33L187.49,180.55z M189.26,185.26
			l-1.74-4.09l-1.73,4.09H189.26z"/>
		<path class="st3" d="M191.54,182.47h0.28v0.97c0.32-0.63,0.96-1.06,1.71-1.06c0.72,0,1.34,0.49,1.51,1.16
			c0.29-0.68,0.97-1.16,1.77-1.16c0.87,0,1.58,0.71,1.58,1.57v3.39h-0.28v-3.34c-0.01-0.73-0.61-1.34-1.35-1.34
			c-0.91,0-1.66,0.74-1.66,1.67v3.01h-0.28v-3.34c-0.01-0.73-0.61-1.34-1.35-1.34c-0.91,0-1.66,0.74-1.67,1.67v3.01h-0.28V182.47z"
			/>
		<path class="st3" d="M199.65,184.9c0-1.39,1.13-2.52,2.52-2.52c1.39,0,2.53,1.13,2.53,2.52c0,1.41-1.14,2.54-2.53,2.54
			C200.78,187.44,199.65,186.31,199.65,184.9z M204.41,184.9c0-1.23-1.01-2.24-2.24-2.24s-2.24,1.01-2.24,2.24
			c0,1.24,1.01,2.25,2.24,2.25S204.41,186.14,204.41,184.9z"/>
		<path class="st3" d="M206.03,182.47h0.28v0.98c0.31-0.64,0.96-1.07,1.7-1.07c0.09,0,0.19,0.01,0.28,0.02v0.29
			c-0.1-0.02-0.2-0.03-0.3-0.03c-0.92,0-1.67,0.75-1.68,1.69v2.98h-0.28V182.47z"/>
	</g>
	<rect x="83.39" y="176.11" class="st1" width="174.03" height="1.58"/>
	<path class="st2" d="M244.04,166.89l-2.51,2.51c0,0,2.77,4.1,8.73,4.12c5.96,0.02,8.9-5.25,8.55-9.05
		c-0.35-3.8-3.43-6.31-8.63-8.99s-4.42-6.39-2.69-8.38c1.73-1.99,6.05-1.21,8.21,1.64l2.59-2.17c0,0-2.74-3.83-8.11-3.6
		c-5.37,0.23-7.96,4.9-7.45,8.36c0.52,3.46,3.4,5.53,7.45,7.6c4.05,2.07,4.91,3.89,4.74,6.65c-0.17,2.77-1.64,4.58-5.18,4.67
		C246.2,170.34,244.04,166.89,244.04,166.89z"/>
	<polygon class="st2" points="91.25,172.22 87.86,172.22 93.19,133.15 109.5,165.76 125.97,133.15 131.62,172.22 127.58,172.22 
		124.03,144.29 109.74,173.03 95.12,144.29 	"/>
	<path class="st2" d="M174.15,143.31v29.72h4.34v-17.02c0,0-0.1-4.99,2.44-7.93c1.19-1.38,3.17-1.78,4.86-1.07l0.35,0.14l1.74-3.13
		c0,0-0.72-0.82-2.43-1.01c-1.84-0.21-3.65,0.51-4.96,1.81c-0.91,0.91-1.91,2.19-2.34,3.72l0.52-5.23H174.15z"/>
	<path class="st2" d="M205.33,143.67h-5.96c0-6.2,0.02-11.3,0.02-11.3h-3.82v11.3h-4.85v2.9h4.85v21.1c0,0-0.35,6.19,4.2,5.85h4.34
		v-3.63l-3.31-0.03c-0.71-0.01-1.27-0.6-1.23-1.31l-0.14-3.99c0.04-0.78,0.06-2.45,0.04-3.23c-0.08-3.74-0.1-9.41-0.11-14.75h5.96
		V143.67z"/>
	<path class="st2" d="M232.03,143.67v13.42c0,3.01-0.77,5.99-2.36,8.54c-1.62,2.59-4.09,4.75-7.75,4.33
		c-8.47-0.98-7.69-10.85-7.69-10.85v-15.44h-3.72v14.35c0,0.57,0,1.15-0.02,1.72c-0.08,2.43,0.16,13.79,11.34,13.78
		c4.87-0.01,8.1-3.18,10.2-6.85v6.36h3.63v-29.36H232.03z"/>
	<g>
		<polygon class="st2" points="160.43,131.7 155.22,131.7 148.52,138.64 152.69,138.64 		"/>
		<path class="st2" d="M164.26,143.31l0.3,7.44c-3.07-7.27-11.46-7.43-11.46-7.43s-15.02-0.97-15.5,15.34c0,0,0.65,14.69,15.5,14.86
			c0,0,6.97,0.24,11.16-6.22v5.73h3.53v-29.72H164.26z M152.94,170c-6.4,0-11.58-5.18-11.58-11.58s5.18-11.58,11.58-11.58
			c6.4,0,11.22,5.18,11.22,11.58S159.33,170,152.94,170z"/>
	</g>
</g>
</svg>
